HIERARCHY
ROOT RootJoint
{
    OFFSET   0.000000   0.000000   0.000000
    CHANNELS 6 Xposition Yposition Zposition Xrotation Yrotation Zrotation
    JOINT pelvis_lowerback
    {
        OFFSET   0.000000   0.093605   0.000000
        CHANNELS 3 Xrotation Yrotation Zrotation
        JOINT lowerback_torso
        {
            OFFSET   0.000000   0.100000   0.000000
            CHANNELS 3 Xrotation Yrotation Zrotation
            JOINT torso_head
            {
                OFFSET   0.000000   0.282350   0.000000
                CHANNELS 3 Xrotation Yrotation Zrotation
                End Site
                {
                    OFFSET   0.000000   0.192650   0.000000
                }
            }
            JOINT rTorso_Clavicle
            {
                OFFSET  -0.001000   0.157500   0.000000
                CHANNELS 3 Xrotation Yrotation Zrotation
                JOINT rShoulder
                {
                    OFFSET  -0.117647   0.000000   0.000000
                    CHANNELS 3 Xrotation Yrotation Zrotation
                    JOINT rElbow
                    {
                        OFFSET  -0.245000   0.000000   0.000000
                        CHANNELS 3 Xrotation Yrotation Zrotation
                        JOINT rWrist
                        {
                            OFFSET  -0.240000   0.000000   0.000000
                            CHANNELS 3 Xrotation Yrotation Zrotation
                            End Site
                            {
                                OFFSET  -0.116353  -0.002500   0.000000
                            }
                        }
                    }
                }
            }
            JOINT lTorso_Clavicle
            {
                OFFSET   0.001000   0.157500   0.000000
                CHANNELS 3 Xrotation Yrotation Zrotation
                JOINT lShoulder
                {
                    OFFSET   0.117647   0.000000   0.000000
                    CHANNELS 3 Xrotation Yrotation Zrotation
                    JOINT lElbow
                    {
                        OFFSET   0.245000   0.000000   0.000000
                        CHANNELS 3 Xrotation Yrotation Zrotation
                        JOINT lWrist
                        {
                            OFFSET   0.240000   0.000000   0.000000
                            CHANNELS 3 Xrotation Yrotation Zrotation
                            End Site
                            {
                                OFFSET   0.116353  -0.002500   0.000000
                            }
                        }
                    }
                }
            }
        }
    }
    JOINT rHip
    {
        OFFSET  -0.100000  -0.051395   0.000000
        CHANNELS 3 Xrotation Yrotation Zrotation
        JOINT rKnee
        {
            OFFSET   0.000000  -0.410000   0.000000
            CHANNELS 3 Xrotation Yrotation Zrotation
            JOINT rAnkle
            {
                OFFSET   0.000000  -0.390000   0.000000
                CHANNELS 3 Xrotation Yrotation Zrotation
                JOINT rToeJoint
                {
                    OFFSET   0.000000  -0.050000   0.130000
                    CHANNELS 3 Xrotation Yrotation Zrotation
                    End Site
                    {
                        OFFSET  -0.010000   0.002000   0.060000
                    }
                }
            }
        }
    }
    JOINT lHip
    {
        OFFSET   0.100000  -0.051395   0.000000
        CHANNELS 3 Xrotation Yrotation Zrotation
        JOINT lKnee
        {
            OFFSET   0.000000  -0.410000   0.000000
            CHANNELS 3 Xrotation Yrotation Zrotation
            JOINT lAnkle
            {
                OFFSET   0.000000  -0.390000   0.000000
                CHANNELS 3 Xrotation Yrotation Zrotation
                JOINT lToeJoint
                {
                    OFFSET   0.000000  -0.050000   0.130000
                    CHANNELS 3 Xrotation Yrotation Zrotation
                    End Site
                    {
                        OFFSET   0.010000   0.002000   0.060000
                    }
                }
            }
        }
    }
}
MOTION
Frames: 11
Frame Time:   0.008333
 -2.317783   0.906764   4.583452  -4.990382  -0.949297   1.761127   7.165225   1.161347  -1.129757   7.938280  -2.422975   1.260363   1.360526  -0.754915   1.302647   3.182944   4.340152  11.587246  10.562515  11.994127  45.452850   0.000128  18.208214  -0.000661   8.954130   3.070491   1.881763   2.137301  -5.290508 -12.032621   9.467087 -13.648893 -47.695331  -0.000025 -16.852504  -0.000097   8.593686  -2.921691  -1.959495  15.067594   1.265031  -5.082024   8.616653   0.000041  -0.000290 -13.698570   0.989223   0.555696  -6.419893   0.001633   0.003412  -6.794837  -3.700634   3.395574  10.091293   0.000529  -0.000907   1.312114   5.195082  -0.227604  -1.706498   0.000042  -0.000271
 -2.316913   0.906996   4.585285  -4.858337  -0.959421   1.771972   7.252531   1.122036  -1.179281   7.877715  -2.425647   1.202862   1.217381  -0.769226   1.318972   3.090820   4.353397  11.615093  10.463753  11.948184  45.519390   0.000111  18.154294  -0.000581   8.937063   2.977114   1.836691   2.021755  -5.262562 -12.057370   9.425058 -13.597098 -47.624864  -0.000018 -16.861596  -0.000080   8.581432  -2.969072  -1.966987  15.045130   1.271447  -5.170493   8.589621   0.000015  -0.000231 -13.474876   0.977845   0.793912  -7.166282   0.002362   0.002906  -6.920082  -3.682845   3.314476  10.333076   0.000575  -0.000751   1.002957   5.223645  -0.124024  -1.546476  -0.000002  -0.000196
 -2.315956   0.907256   4.587169  -4.726672  -0.955087   1.777808   7.340206   1.088378  -1.226758   7.815999  -2.423401   1.149823   1.081197  -0.784045   1.333690   2.993408   4.375295  11.642087  10.362112  11.913563  45.583540   0.000097  18.108834  -0.000495   8.918473   2.896937   1.786481   1.912494  -5.235890 -12.072808   9.385694 -13.547547 -47.553773  -0.000012 -16.870335  -0.000067   8.568394  -3.016628  -1.967054  15.020312   1.269965  -5.253885   8.571847   0.000000  -0.000184 -13.223115   0.964880   1.011496  -7.910689   0.002798   0.002495  -7.054646  -3.651741   3.207827  10.547175   0.000657  -0.000581   0.708920   5.258126  -0.038465  -1.404773   0.000031  -0.000100
 -2.314920   0.907505   4.589124  -4.597888  -0.944255   1.775205   7.424373   1.064708  -1.270879   7.756380  -2.413543   1.102004   0.954508  -0.797889   1.346970   2.895172   4.402454  11.667091  10.261481  11.886599  45.643400   0.000087  18.069626  -0.000413   8.900092   2.835839   1.734699   1.810821  -5.210008 -12.080346   9.349886 -13.499994 -47.483511  -0.000008 -16.878196  -0.000057   8.555948  -3.060711  -1.961583  14.997874   1.265625  -5.330349   8.562848  -0.000006  -0.000147 -12.960971   0.952826   1.208715  -8.640028   0.002987   0.002155  -7.191564  -3.620842   3.085405  10.741434   0.000746  -0.000442   0.433944   5.289812   0.041388  -1.277196   0.000088  -0.000029
 -2.313814   0.907720   4.591157  -4.472577  -0.929589   1.762424   7.503535   1.050329  -1.310937   7.699166  -2.396589   1.059286   0.836610  -0.810660   1.359124   2.798073   4.432787  11.689871  10.163397  11.865231  45.698742   0.000080  18.035339  -0.000338   8.882172   2.789769   1.682090   1.717466  -5.183801 -12.081770   9.318222 -13.453653 -47.414735  -0.000005 -16.884813  -0.000050   8.544133  -3.099318  -1.952021  14.980386   1.259769  -5.398790   8.561178  -0.000006  -0.000118 -12.698797   0.942684   1.389370  -9.348184   0.003001   0.001869  -7.328045  -3.591262   2.953755  10.919219   0.000828  -0.000332   0.177022   5.318816   0.115918  -1.161303   0.000153   0.000022
 -2.312675   0.907908   4.593300  -4.342722  -0.936996   1.753593   7.568446   1.052422  -1.365492   7.641842  -2.368010   1.014737   0.726618  -0.822124   1.369786   2.703239   4.465511  11.716235  10.068014  11.849257  45.753312   0.000074  18.005368  -0.000275   8.865013   2.756288   1.631747   1.635881  -5.152967 -12.076430   9.293858 -13.405178 -47.345510  -0.000004 -16.888631  -0.000042   8.533030  -3.126557  -1.937788  14.961887   1.264262  -5.478621   8.563041  -0.000004  -0.000094 -12.448143   0.943474   1.554587 -10.021429   0.002880   0.001623  -7.428421  -3.596453   2.872645  11.144597   0.000839  -0.000336  -0.043207   5.326206   0.214539  -1.063997   0.000113  -0.000006
 -2.311450   0.908090   4.595506  -4.207446  -0.924960   1.755184   7.626753   1.051950  -1.423558   7.583223  -2.341416   0.967206   0.622552  -0.833249   1.378173   2.611674   4.498343  11.741374   9.976645  11.836207  45.803778   0.000069  17.978621  -0.000219   8.848046   2.731413   1.579854   1.559713  -5.124461 -12.070402   9.271478 -13.359393 -47.279352  -0.000002 -16.891582  -0.000036   8.522659  -3.147178  -1.921250  14.943708   1.256713  -5.568117   8.566778   0.000000  -0.000076 -12.198269   0.934939   1.706012 -10.682148   0.002675   0.001413  -7.525648  -3.583029   2.780440  11.348615   0.000841  -0.000271  -0.247474   5.344983   0.285779  -0.965516   0.000108   0.000012
 -2.310078   0.908332   4.597877  -4.114737  -0.955787   1.768343   7.712939   1.058640  -1.477582   7.519211  -2.312467   0.899102   0.542590  -0.852302   1.412832   2.510887   4.521507  11.751150   9.837584  11.828135  45.899333   0.000069  17.941889  -0.000199   8.839012   2.680054   1.518690   1.497621  -5.067155 -12.061292   9.281995 -13.328977 -47.217964   0.000010 -16.927203  -0.000044   8.522379  -3.162206  -1.901101  14.919275   1.259865  -5.701351   8.671272   0.000098  -0.000093 -11.913521   0.970516   1.965636 -11.455318   0.003154   0.001312  -7.513492  -3.609071   2.659201  11.462216   0.000777  -0.000305  -0.412164   5.380725   0.393014  -0.827753   0.000080  -0.000053
 -2.308609   0.908584   4.600375  -4.027524  -0.983807   1.780374   7.783794   1.061315  -1.526634   7.455333  -2.284781   0.836834   0.468958  -0.871389   1.447009   2.414037   4.543554  11.762686   9.704362  11.823362  45.993010   0.000066  17.910104  -0.000181   8.828312   2.638850   1.458115   1.445823  -5.008291 -12.053130   9.295909 -13.297955 -47.163981   0.000018 -16.960102  -0.000051   8.522981  -3.181987  -1.891453  14.893553   1.261574  -5.837245   8.802980   0.000207  -0.000117 -11.616027   1.007414   2.205094 -12.266015   0.003419   0.001240  -7.483741  -3.637765   2.532423  11.565880   0.000722  -0.000327  -0.566927   5.412319   0.494330  -0.700723   0.000070  -0.000107
 -2.307052   0.908828   4.602976  -3.941527  -1.005632   1.792586   7.841510   1.063473  -1.572719   7.389478  -2.258157   0.780357   0.399070  -0.889571   1.479252   2.322840   4.564535  11.775715   9.578878  11.820010  46.082776   0.000062  17.881498  -0.000164   8.817502   2.606755   1.401466   1.399771  -4.951450 -12.044562   9.310614 -13.267687 -47.114155   0.000021 -16.990219  -0.000056   8.523707  -3.199841  -1.887099  14.871666   1.260217  -5.975410   8.943048   0.000308  -0.000136 -11.313279   1.042127   2.422381 -13.090922   0.003466   0.001178  -7.449636  -3.663139   2.400396  11.670783   0.000685  -0.000337  -0.707703   5.441790   0.587416  -0.584906   0.000074  -0.000138
 -2.305417   0.909057   4.605665  -3.855122  -1.021993   1.805839   7.888733   1.066498  -1.617051   7.321988  -2.232073   0.728541   0.332596  -0.906652   1.509391   2.236778   4.585013  11.789832   9.460701  11.817898  46.168209   0.000056  17.855558  -0.000146   8.806870   2.581150   1.348735   1.357311  -4.897674 -12.034858   9.324921 -13.238813 -47.066828   0.000021 -17.018101  -0.000060   8.524432  -3.215855  -1.883275  14.854019   1.256034  -6.116508   9.085783   0.000395  -0.000148 -11.009089   1.074340   2.619238 -13.920695   0.003341   0.001118  -7.415294  -3.684566   2.262922  11.779343   0.000665  -0.000340  -0.833621   5.469630   0.672220  -0.478828   0.000087  -0.000152
